<svg xmlns="http://www.w3.org/2000/svg" width="36.135" height="30" viewBox="0 0 36.135 30"><path d="M18.318,2A11.517,11.517,0,0,1,29.844,13.144l.006.384v6.3l2.122,4.853a1.921,1.921,0,0,1-1.761,2.691l-7.281,0a4.613,4.613,0,0,1-9.218.272l-.008-.277H6.439a1.924,1.924,0,0,1-1.764-2.686l2.11-4.856v-6.3A11.514,11.514,0,0,1,18.318,2Zm2.307,25.378-4.613,0a2.307,2.307,0,0,0,4.6.223l.009-.226ZM18.318,4.3a9.208,9.208,0,0,0-9.226,9.226V20.31L7.025,25.067h22.6l-2.08-4.756V13.549l-.006-.346a9.208,9.208,0,0,0-9.22-8.9Zm13.839,7.31h3.075a1.153,1.153,0,0,1,.157,2.3l-.157.011H32.157a1.153,1.153,0,0,1-.157-2.3Zm-30.754,0H4.479a1.153,1.153,0,0,1,.157,2.3l-.157.011H1.4a1.153,1.153,0,0,1-.157-2.3ZM34.617,2.848a1.153,1.153,0,0,1-.1,1.5l-.129.112L31.311,6.769A1.153,1.153,0,0,1,29.8,5.036l.129-.112L33,2.617a1.153,1.153,0,0,1,1.615.231ZM3.633,2.617,6.708,4.924A1.153,1.153,0,1,1,5.324,6.769L2.249,4.462A1.153,1.153,0,1,1,3.633,2.617Z" transform="translate(-0.25 -1.996)" fill="#fff"/></svg>