<svg xmlns="http://www.w3.org/2000/svg" width="18" height="18" viewBox="0 0 18 18"><path d="M6.75,6A.75.75,0,0,0,6,6.75v10.5a.75.75,0,0,0,.75.75h10.5a.75.75,0,0,0,.75-.75V6.75A.75.75,0,0,0,17.25,6Zm11.5-3H5.75A2.75,2.75,0,0,0,3,5.75v12.5A2.75,2.75,0,0,0,5.75,21h12.5A2.75,2.75,0,0,0,21,18.25V5.75A2.75,2.75,0,0,0,18.25,3ZM4.5,5.75A1.25,1.25,0,0,1,5.75,4.5h12.5A1.25,1.25,0,0,1,19.5,5.75v12.5a1.25,1.25,0,0,1-1.25,1.25H5.75A1.25,1.25,0,0,1,4.5,18.25Z" transform="translate(-3 -3)" fill="#212121"/></svg>