<svg xmlns="http://www.w3.org/2000/svg" width="79.771" height="88.168" viewBox="0 0 79.771 88.168"><g transform="translate(-1 -2)"><path d="M64.878,77.573a2.1,2.1,0,0,1-2.1,2.1H38.713a27.365,27.365,0,0,1-4.526,6.3H62.779a8.4,8.4,0,0,0,8.4-8.4V34.866a8.4,8.4,0,0,0-2.459-5.935L44.242,4.46a2.061,2.061,0,0,0-.206-.168q-.078-.06-.151-.126a8.7,8.7,0,0,0-.919-.756,2.737,2.737,0,0,0-.336-.185l-.2-.1L42.219,3a6.48,6.48,0,0,0-.7-.365,8.3,8.3,0,0,0-2.62-.579,2.349,2.349,0,0,1-.248-.029A2.54,2.54,0,0,0,38.31,2H12.4A8.4,8.4,0,0,0,4,10.4v31.48a27.084,27.084,0,0,1,6.3-1.772V10.4a2.1,2.1,0,0,1,2.1-2.1H37.588V27.191a8.4,8.4,0,0,0,8.4,8.4H64.878ZM43.886,13,60.167,29.29H45.985a2.1,2.1,0,0,1-2.1-2.1V13Z" transform="translate(9.595)" fill="#fff"/><path d="M47.183,35.092A23.092,23.092,0,1,0,24.092,58.183,23.092,23.092,0,0,0,47.183,35.092Zm-20.992,2.1,0,10.509a2.1,2.1,0,1,1-4.2,0V37.191H11.479a2.1,2.1,0,1,1,0-4.2H21.992V22.5a2.1,2.1,0,1,1,4.2,0v10.5H36.674a2.1,2.1,0,0,1,0,4.2Z" transform="translate(0 31.985)" fill="#fff"/></g></svg>