<svg xmlns="http://www.w3.org/2000/svg" width="37.5" height="30" viewBox="0 0 37.5 30"><path d="M8.094,4H33.406a6.094,6.094,0,0,1,6.084,5.749l.009.345V27.906a6.094,6.094,0,0,1-5.749,6.084L33.406,34H8.094a6.094,6.094,0,0,1-6.084-5.749L2,27.906V10.094A6.094,6.094,0,0,1,7.749,4.009L8.094,4h0ZM36.687,14.074,21.406,22.118a1.406,1.406,0,0,1-1.131.081l-.18-.079L4.813,14.076v13.83a3.281,3.281,0,0,0,3.011,3.27l.27.011H33.406a3.281,3.281,0,0,0,3.27-3.013l.011-.268ZM33.406,6.813H8.094a3.281,3.281,0,0,0-3.27,3.011l-.011.27v.8L20.75,19.285,36.687,10.9v-.8a3.281,3.281,0,0,0-3.013-3.27Z" transform="translate(-2 -4)" fill="#fff"/></svg>