<svg xmlns="http://www.w3.org/2000/svg" xmlns:xlink="http://www.w3.org/1999/xlink" width="35" height="35" viewBox="0 0 35 35"><defs><clipPath id="a"><rect width="35" height="35" fill="none"/></clipPath></defs><g clip-path="url(#a)"><path d="M17.5,0A17.5,17.5,0,1,1,0,17.5,17.5,17.5,0,0,1,17.5,0m0,2.917A14.583,14.583,0,1,0,32.083,17.5,14.6,14.6,0,0,0,17.5,2.917m0,18.961a1.748,1.748,0,1,1-1.749,1.749A1.75,1.75,0,0,1,17.5,21.878M17.49,8.75a1.314,1.314,0,0,1,1.3,1.134l.011.177.007,7.878a1.313,1.313,0,0,1-2.613.18l-.012-.178-.007-7.877A1.313,1.313,0,0,1,17.49,8.75h0Z" fill="#a90011"/></g></svg>