<svg xmlns="http://www.w3.org/2000/svg" width="59.342" height="84.773" viewBox="0 0 59.342 84.773"><path d="M61.163,40.148A3.179,3.179,0,0,1,64.312,42.9l.03.432v2.119a28.612,28.612,0,0,1-26.49,28.535l0,9.613a3.179,3.179,0,0,1-6.328.432l-.03-.432V73.982A28.611,28.611,0,0,1,5.017,46.447l-.017-1V43.327a3.179,3.179,0,0,1,6.328-.432l.03.432v2.119A22.254,22.254,0,0,0,32.7,67.683l.914.017h2.119a22.254,22.254,0,0,0,22.236-21.34l.017-.914V43.327A3.179,3.179,0,0,1,61.163,40.148ZM34.671,2A16.955,16.955,0,0,1,51.626,18.955V44.387a16.955,16.955,0,0,1-33.91,0V18.955A16.955,16.955,0,0,1,34.671,2Z" transform="translate(-5 -2)" fill="#fff"/></svg>