<svg xmlns="http://www.w3.org/2000/svg" width="39.974" height="20" viewBox="0 0 39.974 20"><path d="M15.994,7a2,2,0,0,1,.234,3.986L15.994,11h-4a6,6,0,0,0-.352,11.99l.352.01h4a2,2,0,0,1,.234,3.986L15.994,27h-4A10,10,0,0,1,11.56,7.01L11.994,7Zm16,0a10,10,0,0,1,.434,19.99l-.434.01h-4a2,2,0,0,1-.234-3.986L27.994,23h4a6,6,0,0,0,.352-11.99L31.994,11h-4a2,2,0,0,1-.234-3.986L27.994,7Zm-20,8h20a2,2,0,0,1,.234,3.986L31.994,19h-20a2,2,0,0,1-.234-3.986L11.994,15h0Z" transform="translate(-2.006 -7)" fill="#fff"/></svg>