<svg xmlns="http://www.w3.org/2000/svg" width="63.576" height="84.808" viewBox="0 0 63.576 84.808"><path d="M7.679,8.354H64.9a3.18,3.18,0,0,0,.428-6.329L64.9,2H7.679a3.18,3.18,0,0,0-.432,6.329ZM35.8,86.774l.5.03a4.239,4.239,0,0,0,4.21-3.748l.03-.492V29.191L54.5,43.146a4.239,4.239,0,0,0,5.6.352l.4-.352a4.239,4.239,0,0,0,.352-5.6l-.352-.4L39.309,15.968a4.239,4.239,0,0,0-5.6-.352l-.4.352L12.1,37.148A4.239,4.239,0,0,0,17.7,43.5l.4-.352,13.96-13.939V82.564a4.239,4.239,0,0,0,3.743,4.21Z" transform="translate(-4.5 -1.995)" fill="#fff"/></svg>