<svg xmlns="http://www.w3.org/2000/svg" width="67.733" height="84.667" viewBox="0 0 67.733 84.667"><path d="M65.383,78.2a2.117,2.117,0,0,1-2.117,2.117h-50.8A2.117,2.117,0,0,1,10.35,78.2V10.467A2.117,2.117,0,0,1,12.467,8.35h25.4V27.4a8.467,8.467,0,0,0,8.467,8.467h19.05ZM44.217,13.1,60.634,29.517h-14.3A2.117,2.117,0,0,1,44.217,27.4V13.1ZM69.253,29.153,44.576,4.481c-.11-.11-.246-.195-.36-.3a8.771,8.771,0,0,0-.927-.762c-.169-.114-.364-.191-.542-.288a9.495,9.495,0,0,0-.914-.491,8.369,8.369,0,0,0-2.642-.584c-.2-.013-.394-.059-.6-.059H12.467A8.467,8.467,0,0,0,4,10.467V78.2a8.467,8.467,0,0,0,8.467,8.467h50.8A8.467,8.467,0,0,0,71.733,78.2V35.139a8.466,8.466,0,0,0-2.479-5.985Z" transform="translate(-4 -2)" fill="#fff"/></svg>