<svg xmlns="http://www.w3.org/2000/svg" width="38" height="41.996" viewBox="0 0 38 41.996"><path d="M4,9.992A5.188,5.188,0,0,1,5.546,6.436a11.183,11.183,0,0,1,3.582-2.4A27.261,27.261,0,0,1,19.984,2,27.261,27.261,0,0,1,30.84,4.034a11.216,11.216,0,0,1,3.582,2.4,5.188,5.188,0,0,1,1.546,3.556v12.5a10.981,10.981,0,0,0-3-1.762v-5.96A13.482,13.482,0,0,1,30.84,15.95a27.261,27.261,0,0,1-10.855,2.034A27.261,27.261,0,0,1,9.129,15.95,13.589,13.589,0,0,1,7,14.771v19.2a2.213,2.213,0,0,0,.729,1.5,8.261,8.261,0,0,0,2.627,1.726,24.364,24.364,0,0,0,9.631,1.77c.48,0,.951-.012,1.415-.032a10.979,10.979,0,0,0,4.3,2.531,32.077,32.077,0,0,1-5.71.5A27.3,27.3,0,0,1,9.129,39.929a11.187,11.187,0,0,1-3.582-2.4A5.188,5.188,0,0,1,4,33.968Zm3,0a2.213,2.213,0,0,0,.729,1.5,8.261,8.261,0,0,0,2.627,1.726,24.364,24.364,0,0,0,9.631,1.77,24.329,24.329,0,0,0,9.631-1.77,8.261,8.261,0,0,0,2.627-1.726,2.213,2.213,0,0,0,.729-1.5,2.213,2.213,0,0,0-.729-1.5,8.261,8.261,0,0,0-2.627-1.726A24.371,24.371,0,0,0,19.984,5a24.329,24.329,0,0,0-9.631,1.77A8.261,8.261,0,0,0,7.726,8.494,2.213,2.213,0,0,0,7,9.992Zm21.978,29.97A8.951,8.951,0,0,0,34.184,38.3l5.221,5.219A1.5,1.5,0,1,0,41.523,41.4L36.3,36.18a8.991,8.991,0,1,0-7.329,3.782Zm0-3a5.994,5.994,0,1,1,5.994-5.994A5.994,5.994,0,0,1,28.975,36.966Z" transform="translate(-4 -2)" fill="#4d4d4d"/></svg>