<svg xmlns="http://www.w3.org/2000/svg" width="38" height="32.414" viewBox="0 0 38 32.414"><path d="M16.716,4.2a7.012,7.012,0,0,1,7.568,0l14.592,9.354a1.357,1.357,0,0,1,.009,2.278l-5.718,3.737V29.62a1.357,1.357,0,0,1-.271.814l0,0,0,0-.005.007-.016.018-.027.036a13.441,13.441,0,0,1-3.007,2.535A17.532,17.532,0,0,1,20.5,35.5a17.55,17.55,0,0,1-9.335-2.463A13.44,13.44,0,0,1,8.9,31.306q-.3-.286-.572-.6-.117-.132-.224-.271l0,0a1.357,1.357,0,0,1-.271-.814V19.564L4.214,17.2v9.706a1.357,1.357,0,0,1-2.714,0V14.691a1.357,1.357,0,0,1,.648-1.158L16.715,4.2Zm7.618,21.137a7.012,7.012,0,0,1-7.669,0l-6.118-4v7.776a10.738,10.738,0,0,0,2.039,1.616A14.871,14.871,0,0,0,20.5,32.787a14.853,14.853,0,0,0,7.913-2.061,10.74,10.74,0,0,0,2.039-1.614V21.336l-6.116,4ZM22.82,6.48a4.3,4.3,0,0,0-4.64,0L5.354,14.7l12.8,8.36a4.3,4.3,0,0,0,4.7,0L35.644,14.7,22.82,6.48Z" transform="translate(-1.5 -3.087)" fill="#4d4d4d"/></svg>